HIERARCHY
ROOT Hips
{
  OFFSET 5.84602e-005 68.8428 3.50346
  CHANNELS 6 Xposition Yposition Zposition Zrotation Xrotation Yrotation
  JOINT Spine
  {
    OFFSET 0 8.597 -4.6522
    CHANNELS 3 Zrotation Xrotation Yrotation
    JOINT Spine1
    {
      OFFSET 0 7.8454 0.4098
      CHANNELS 3 Zrotation Xrotation Yrotation
      JOINT Spine2
      {
        OFFSET 0 9.7078 -2.1609
        CHANNELS 3 Zrotation Xrotation Yrotation
        JOINT Neck
        {
          OFFSET 0 21.8761 -0.4549
          CHANNELS 3 Zrotation Xrotation Yrotation
          JOINT Head
          {
            OFFSET 0 12.3537 3.3602
            CHANNELS 3 Zrotation Xrotation Yrotation
            End Site
            {
              OFFSET 0.0001 18.9506 0.5657
            }
          }
        }
        JOINT LeftShoulder
        {
          OFFSET 2.2086 21.1115 7.2329
          CHANNELS 3 Zrotation Xrotation Yrotation
          JOINT LeftArm
          {
            OFFSET 13.1193 3.0282 -4.8998
            CHANNELS 3 Zrotation Xrotation Yrotation
            JOINT LeftForeArm
            {
              OFFSET 27.4081 -0.0973053 -0.2375
              CHANNELS 3 Zrotation Xrotation Yrotation
              JOINT LeftHand
              {
                OFFSET 22.8641 0.0662994 -0.1369
                CHANNELS 3 Zrotation Xrotation Yrotation
                JOINT LeftHandIndex1
                {
                  OFFSET 8.8614 0.775009 2.4612
                  CHANNELS 3 Zrotation Xrotation Yrotation
                  JOINT LeftHandIndex2
                  {
                    OFFSET 3.3146 -0.808304 0.5841
                    CHANNELS 3 Zrotation Xrotation Yrotation
                    JOINT LeftHandIndex3
                    {
                      OFFSET 2.2628 -0.552002 0.3989
                      CHANNELS 3 Zrotation Xrotation Yrotation
                      End Site
                      {
                        OFFSET 1.6102 -0.4807 0.2612
                      }
                    }
                  }
                }
                JOINT LeftHandMiddle1
                {
                  OFFSET 8.9937 0.895004 0.2143
                  CHANNELS 3 Zrotation Xrotation Yrotation
                  JOINT LeftHandMiddle2
                  {
                    OFFSET 4.0984 0.0113983 -0.0242
                    CHANNELS 3 Zrotation Xrotation Yrotation
                    JOINT LeftHandMiddle3
                    {
                      OFFSET 2.2716 0.00689697 -0.0138001
                      CHANNELS 3 Zrotation Xrotation Yrotation
                      End Site
                      {
                        OFFSET 2.0404 -0.1441 0.0027
                      }
                    }
                  }
                }
                JOINT LeftHandRing1
                {
                  OFFSET 8.5234 0.597198 -2.0164
                  CHANNELS 3 Zrotation Xrotation Yrotation
                  JOINT LeftHandRing2
                  {
                    OFFSET 3.7188 -0.188293 -0.2328
                    CHANNELS 3 Zrotation Xrotation Yrotation
                    JOINT LeftHandRing3
                    {
                      OFFSET 2.1191 -0.106598 -0.1332
                      CHANNELS 3 Zrotation Xrotation Yrotation
                      End Site
                      {
                        OFFSET 1.8737 -0.2304 -0.0886
                      }
                    }
                  }
                }
                JOINT LeftHandPinky1
                {
                  OFFSET 7.9094 -0.601089 -3.4825
                  CHANNELS 3 Zrotation Xrotation Yrotation
                  JOINT LeftHandPinky2
                  {
                    OFFSET 2.2874 -0.477005 -0.6314
                    CHANNELS 3 Zrotation Xrotation Yrotation
                    JOINT LeftHandPinky3
                    {
                      OFFSET 1.6774 -0.349396 -0.4633
                      CHANNELS 3 Zrotation Xrotation Yrotation
                      End Site
                      {
                        OFFSET 1.4888 -0.4091 -0.3416
                      }
                    }
                  }
                }
                JOINT LeftHandThumb1
                {
                  OFFSET 1.833 -1.3875 1.3896
                  CHANNELS 3 Zrotation Xrotation Yrotation
                  JOINT LeftHandThumb2
                  {
                    OFFSET 3.4129 -1.121 2.5732
                    CHANNELS 3 Zrotation Xrotation Yrotation
                    JOINT LeftHandThumb3
                    {
                      OFFSET 2.2474 -0.804199 1.6192
                      CHANNELS 3 Zrotation Xrotation Yrotation
                      End Site
                      {
                        OFFSET 1.6527 -0.5689 1.1317
                      }
                    }
                  }
                }
              }
            }
          }
        }
        JOINT RightShoulder
        {
          OFFSET -2.2086 21.1115 7.2329
          CHANNELS 3 Zrotation Xrotation Yrotation
          JOINT RightArm
          {
            OFFSET -13.1216 3.0287 -4.9007
            CHANNELS 3 Zrotation Xrotation Yrotation
            JOINT RightForeArm
            {
              OFFSET -27.4081 -0.0973053 -0.2375
              CHANNELS 3 Zrotation Xrotation Yrotation
              JOINT RightHand
              {
                OFFSET -22.8641 0.0664063 -0.1369
                CHANNELS 3 Zrotation Xrotation Yrotation
                JOINT RightHandIndex1
                {
                  OFFSET -8.8614 0.774994 2.4612
                  CHANNELS 3 Zrotation Xrotation Yrotation
                  JOINT RightHandIndex2
                  {
                    OFFSET -3.3146 -0.808304 0.5841
                    CHANNELS 3 Zrotation Xrotation Yrotation
                    JOINT RightHandIndex3
                    {
                      OFFSET -2.2628 -0.552002 0.3989
                      CHANNELS 3 Zrotation Xrotation Yrotation
                      End Site
                      {
                        OFFSET -1.6102 -0.4807 0.2612
                      }
                    }
                  }
                }
                JOINT RightHandMiddle1
                {
                  OFFSET -8.9937 0.894989 0.2143
                  CHANNELS 3 Zrotation Xrotation Yrotation
                  JOINT RightHandMiddle2
                  {
                    OFFSET -4.0984 0.0113983 -0.0242
                    CHANNELS 3 Zrotation Xrotation Yrotation
                    JOINT RightHandMiddle3
                    {
                      OFFSET -2.2716 0.00691223 -0.0138001
                      CHANNELS 3 Zrotation Xrotation Yrotation
                      End Site
                      {
                        OFFSET -2.0404 -0.1441 0.0027
                      }
                    }
                  }
                }
                JOINT RightHandRing1
                {
                  OFFSET -8.5234 0.597198 -2.0164
                  CHANNELS 3 Zrotation Xrotation Yrotation
                  JOINT RightHandRing2
                  {
                    OFFSET -3.7188 -0.188309 -0.2328
                    CHANNELS 3 Zrotation Xrotation Yrotation
                    JOINT RightHandRing3
                    {
                      OFFSET -2.1191 -0.106598 -0.1332
                      CHANNELS 3 Zrotation Xrotation Yrotation
                      End Site
                      {
                        OFFSET -1.8737 -0.2304 -0.0886
                      }
                    }
                  }
                }
                JOINT RightHandPinky1
                {
                  OFFSET -7.9094 -0.601105 -3.4825
                  CHANNELS 3 Zrotation Xrotation Yrotation
                  JOINT RightHandPinky2
                  {
                    OFFSET -2.2874 -0.477005 -0.6314
                    CHANNELS 3 Zrotation Xrotation Yrotation
                    JOINT RightHandPinky3
                    {
                      OFFSET -1.6774 -0.349396 -0.4633
                      CHANNELS 3 Zrotation Xrotation Yrotation
                      End Site
                      {
                        OFFSET -1.4888 -0.4091 -0.3416
                      }
                    }
                  }
                }
                JOINT RightHandThumb1
                {
                  OFFSET -1.833 -1.38751 1.3896
                  CHANNELS 3 Zrotation Xrotation Yrotation
                  JOINT RightHandThumb2
                  {
                    OFFSET -3.41299 -1.12099 2.5732
                    CHANNELS 3 Zrotation Xrotation Yrotation
                    JOINT RightHandThumb3
                    {
                      OFFSET -2.24741 -0.804108 1.6192
                      CHANNELS 3 Zrotation Xrotation Yrotation
                      End Site
                      {
                        OFFSET -1.6527 -0.5689 1.1317
                      }
                    }
                  }
                }
              }
            }
          }
        }
      }
    }
  }
  JOINT RightUpLeg
  {
    OFFSET -9.1966 3.8861 -0.7581
    CHANNELS 3 Zrotation Xrotation Yrotation
    JOINT RightLeg
    {
      OFFSET -0.7359 -41.0265 0
      CHANNELS 3 Zrotation Xrotation Yrotation
      JOINT RightFoot
      {
        OFFSET 0 -40.2855 0
        CHANNELS 3 Zrotation Xrotation Yrotation
        JOINT RightToeBase
        {
          OFFSET 0 -5.6122 11.7359
          CHANNELS 3 Zrotation Xrotation Yrotation
          End Site
          {
            OFFSET 0 0 7.8731
          }
        }
      }
    }
  }
  JOINT LeftUpLeg
  {
    OFFSET 9.1965 3.8864 -0.7581
    CHANNELS 3 Zrotation Xrotation Yrotation
    JOINT LeftLeg
    {
      OFFSET 0.7359 -41.0268 0
      CHANNELS 3 Zrotation Xrotation Yrotation
      JOINT LeftFoot
      {
        OFFSET 0 -40.2855 0
        CHANNELS 3 Zrotation Xrotation Yrotation
        JOINT LeftToeBase
        {
          OFFSET 0 -5.6122 11.7359
          CHANNELS 3 Zrotation Xrotation Yrotation
          End Site
          {
            OFFSET 0 0 7.8731
          }
        }
      }
    }
  }
}
MOTION
Frames:	4
Frame Time:	0.0333333
-0.525288 63.6872 4.36847 -0 -5.07254 -0 -0.183603 2.50557 3.05663 -0.501543 4.99776 6.13007 -0.501543 4.99775 6.13007 20.8413 -27.6055 -9.4416 -0.00144717 7.71914 -10.0029 26.2496 11.1118 -74.8024 -38.466 -14.5307 -12.5497 -56.6918 -41.2859 -79.5798 -31.3426 29.7295 10.8357 -2.39243e-007 1.58913e-007 2.38802e-007 6.8355e-008 -4.54038e-008 -6.82291e-008 6.8355e-008 -4.54038e-008 -6.82291e-008 -2.39243e-007 1.58913e-007 2.38802e-007 -0.014541 -8.28054e-005 6.79769e-006 1.55832e-006 -5.83431e-008 1.3731e-006 -2.39243e-007 1.58913e-007 2.38802e-007 -0.0187147 -0.00117474 5.52249e-005 6.83544e-008 -4.53926e-008 -6.82372e-008 -2.39243e-007 1.58913e-007 2.38802e-007 -0.0123415 -0.00326946 0.000687245 -1.42142e-006 -3.27915e-008 -1.50946e-006 -2.39243e-007 1.58913e-007 2.38802e-007 6.8355e-008 -4.54038e-008 -6.82291e-008 6.8355e-008 -4.54038e-008 -6.82291e-008 1.64891 -20.7217 11.5843 72.6995 4.90963 19.718 -13.5214 -4.83914 38.9698 68.8544 2.5144 -15.5228 -1.07808e-006 -5.60562e-007 1.13792e-006 -6.0268e-007 -6.00521e-007 6.69851e-007 -1.07808e-006 -5.60562e-007 1.13792e-006 -1.07808e-006 -5.60562e-007 1.13792e-006 0.0150233 -9.21587e-005 3.8357e-006 -1.6793e-006 -1.16085e-006 1.80792e-006 -1.07808e-006 -5.60562e-007 1.13792e-006 0.0189339 -0.00119063 -6.03405e-005 -1.078e-006 -5.60378e-007 1.13802e-006 -1.07808e-006 -5.60562e-007 1.13792e-006 0.0122647 -0.00325057 -0.000672928 -4.76496e-007 4.03008e-008 4.68135e-007 -1.07808e-006 -5.60562e-007 1.13792e-006 -6.0268e-007 -6.00521e-007 6.69851e-007 -1.07808e-006 -5.60562e-007 1.13792e-006 -17.8466 -13.1083 -11.6175 0.5475 31.1042 0.151401 20.8932 -9.21718 -2.8184 5.94817e-008 -2.06305e-007 -5.43077e-007 7.75451 -18.5314 13.901 2.90854 46.7601 -1.87692 -12.5109 -21.7187 1.34356 -4.34404e-008 -9.61828e-008 -1.69482e-006 
-0.525565 63.8498 4.05674 -0 -4.35859 -0 -0.202387 2.35593 3.05755 -0.531068 4.69777 6.13115 -0.531067 4.69778 6.13114 20.8954 -27.7252 -9.29141 -0.00144981 7.3917 -10.0029 26.2496 11.1117 -74.8024 -38.466 -14.5307 -12.5497 -56.6918 -41.2859 -79.5798 -31.3598 29.729 10.8281 5.12853e-007 -3.40382e-007 -5.11623e-007 9.57325e-007 -6.35379e-007 -9.5503e-007 9.91515e-007 -6.58071e-007 -9.89138e-007 5.12853e-007 -3.40382e-007 -5.11623e-007 -0.0145754 -8.96413e-005 4.7623e-007 9.91515e-007 -6.57946e-007 -9.89222e-007 5.12853e-007 -3.40382e-007 -5.11623e-007 -0.0187383 -0.0011818 6.29246e-005 9.91506e-007 -6.5791e-007 -9.89256e-007 5.12853e-007 -3.40382e-007 -5.11623e-007 -0.0122772 -0.00325059 0.000675412 9.91484e-007 -6.57971e-007 -9.89237e-007 5.12853e-007 -3.40382e-007 -5.11623e-007 9.57325e-007 -6.35379e-007 -9.5503e-007 9.91515e-007 -6.58071e-007 -9.89138e-007 1.38302 -20.5097 11.1542 73.0661 5.07368 19.7303 -13.4133 -4.75163 39.109 68.6659 2.72788 -15.5484 1.07811e-006 5.60536e-007 -1.13794e-006 1.07811e-006 5.60536e-007 -1.13794e-006 -2.38542e-015 7.95139e-016 2.18663e-015 1.07811e-006 5.60536e-007 -1.13794e-006 0.015038 -9.67343e-005 -4.11784e-006 7.95139e-016 7.95139e-016 1.3418e-014 1.07811e-006 5.60536e-007 -1.13794e-006 0.018977 -0.0011888 -6.27006e-005 -1.59028e-015 7.95139e-016 2.08724e-015 1.07811e-006 5.60536e-007 -1.13794e-006 0.0123247 -0.00325659 -0.000676944 6.01867e-007 6.00942e-007 -6.70544e-007 1.07811e-006 5.60536e-007 -1.13794e-006 1.07811e-006 5.60536e-007 -1.13794e-006 -2.38542e-015 7.95139e-016 2.18663e-015 -17.7891 -13.5413 -11.6045 0.73574 30.2188 0.0657533 20.7366 -8.71473 -3.24865 1.74653e-008 -1.05059e-007 6.83563e-009 7.7362 -19.1513 13.9183 2.72287 46.1782 -1.74678 -12.3666 -21.2543 1.53409 -8.74613e-009 -5.2518e-008 -3.56048e-009 
-0.525869 64.0134 3.74442 -0 -3.64481 -0 -0.221163 2.20641 3.05831 -0.560536 4.39786 6.13191 -0.560536 4.39786 6.13191 20.9504 -27.8446 -9.14086 -0.00145092 7.06402 -10.0029 26.2496 11.1117 -74.8024 -38.466 -14.5307 -12.5497 -56.6918 -41.2859 -79.5798 -31.3769 29.7284 10.8204 5.13041e-007 -3.40237e-007 -5.11528e-007 -1.31453e-006 -9.96818e-008 -1.62145e-006 2.51162e-006 -6.94204e-007 4.27888e-007 5.13041e-007 -3.40237e-007 -5.11528e-007 -0.0145855 -9.5987e-005 3.26618e-006 1.02608e-006 -6.80343e-007 -1.02314e-006 5.13041e-007 -3.40237e-007 -5.11528e-007 -0.0187693 -0.00117285 6.33204e-005 1.02607e-006 -6.80307e-007 -1.02318e-006 5.13041e-007 -3.40237e-007 -5.11528e-007 -0.0123177 -0.00325791 0.000674006 1.02605e-006 -6.8037e-007 -1.02316e-006 5.13041e-007 -3.40237e-007 -5.11528e-007 -1.31453e-006 -9.96818e-008 -1.62145e-006 2.51162e-006 -6.94204e-007 4.27888e-007 1.11924 -20.2957 10.7257 73.4328 5.23779 19.7416 -13.3056 -4.66389 39.2479 68.4775 2.94143 -15.5732 1.07814e-006 5.60501e-007 -1.13798e-006 -1.07814e-006 -5.60501e-007 1.13798e-006 1.07814e-006 5.60501e-007 -1.13798e-006 1.07814e-006 5.60501e-007 -1.13798e-006 0.0149536 -9.21911e-005 -1.32022e-006 1.07809e-006 5.60353e-007 -1.13805e-006 1.07814e-006 5.60501e-007 -1.13798e-006 0.0190545 -0.00118993 -5.34605e-005 1.07807e-006 5.60317e-007 -1.13808e-006 1.07814e-006 5.60501e-007 -1.13798e-006 0.0122825 -0.00325442 -0.000676156 1.07807e-006 5.60397e-007 -1.13807e-006 1.07814e-006 5.60501e-007 -1.13798e-006 -1.07814e-006 -5.60501e-007 1.13798e-006 1.07814e-006 5.60501e-007 -1.13798e-006 -17.7293 -13.9734 -11.5911 0.915775 29.3306 -0.0144211 20.5859 -8.20975 -3.67705 -1.7344e-008 2.67187e-007 1.67065e-006 7.7182 -19.7711 13.9356 2.54103 45.5954 -1.6205 -12.2243 -20.7889 1.72288 8.74692e-009 5.25177e-008 3.56243e-009 
-0.526195 64.1781 3.43151 -0 -2.93125 -0 -0.239906 2.05695 3.05894 -0.589952 4.09805 6.13237 -0.589952 4.09805 6.13237 21.0053 -27.9637 -8.99011 -0.00144976 6.73613 -10.0029 26.2497 11.1117 -74.8024 -38.466 -14.5307 -12.5497 -56.6918 -41.2859 -79.5798 -31.3941 29.7279 10.8127 3.61915e-006 -9.29024e-007 7.57768e-007 -2.51052e-006 6.94395e-007 -4.32848e-007 -3.07938e-007 2.04056e-007 3.0686e-007 3.61915e-006 -9.29024e-007 7.57768e-007 -0.0145531 -9.45506e-005 7.0818e-006 -3.07938e-007 2.04017e-007 3.06886e-007 3.61915e-006 -9.29024e-007 7.57768e-007 -0.0187378 -0.00117407 6.23389e-005 1.17804e-006 1.89677e-007 1.76259e-006 3.61915e-006 -9.29024e-007 7.57768e-007 -0.0123188 -0.00326406 0.000682663 1.17742e-006 1.89982e-007 1.76249e-006 3.61915e-006 -9.29024e-007 7.57768e-007 -2.51052e-006 6.94395e-007 -4.32848e-007 -3.07938e-007 2.04056e-007 3.0686e-007 0.857556 -20.08 10.2989 73.7995 5.40193 19.7523 -13.198 -4.57587 39.3867 68.2892 3.15505 -15.5973 -1.0782e-006 -5.60456e-007 1.13802e-006 -1.19785e-006 -1.98488e-007 -3.29442e-006 -1.0782e-006 -5.60456e-007 1.13802e-006 -1.0782e-006 -5.60456e-007 1.13802e-006 0.0149982 -9.04138e-005 -5.35576e-006 -1.07815e-006 -5.60308e-007 1.1381e-006 -1.0782e-006 -5.60456e-007 1.13802e-006 0.0190011 -0.00118765 -6.29883e-005 -1.07812e-006 -5.60272e-007 1.13813e-006 -1.0782e-006 -5.60456e-007 1.13802e-006 0.0122782 -0.0032466 -0.000680439 -1.07812e-006 -5.60352e-007 1.13811e-006 -1.0782e-006 -5.60456e-007 1.13802e-006 -1.19785e-006 -1.98488e-007 -3.29442e-006 -1.0782e-006 -5.60456e-007 1.13802e-006 -17.6671 -14.4044 -11.5774 1.08777 28.4395 -0.0893719 20.441 -7.7022 -4.10368 1.74728e-008 -1.05056e-007 6.86859e-009 7.70068 -20.3905 13.9531 2.36273 45.012 -1.49804 -12.0837 -20.323 1.90992 8.7527e-007 7.01018e-008 1.00304e-008 
